<svg xmlns="http://www.w3.org/2000/svg" width="136" height="165" fill="none"><g clip-path="url(#a)"><path fill="#3A3A3A" d="M87.1 33.23c8.12 0 14.94-5.54 16.9-13.05l5.47.82.31.02a2.16 2.16 0 0 0 .32-4.29l-5.54-.83v-.13l-.01-.54s-.45-6.52-1.08-9.24c-.62-2.72-2.53-3.3-2.53-3.3A111.85 111.85 0 0 0 78.56.25c-2.6 0-3.15 1.34-3.15 1.34l-3.15 5-.01-.01-.22.37-.03.04a17.47 17.47 0 0 0 15.1 26.24ZM125.5 72.54l-26.74-2.17-9.25-21.11s-.46-2.77-6-8.48c-5.56-5.7-16.8-3.39-16.8-3.39s-23.9 4.47-31.75 6.32c-7.86 1.85-8.17 9.86-8.17 9.86l-3.08 22.04-.64 4.4-.01.09-.02.12a7.43 7.43 0 1 0 14.73.01l4.74-21.57 11.56-1.39-1.8 5.88 9.9 1.92a3.01 3.01 0 0 1 2.38 3.52l-7.41 38.24a3.01 3.01 0 0 1-2.95 2.43l-.22-.02c-.73.1-1.29-.04-1.29-.04l-9.4-1.84-3.08 17.1-23.56 20.36a7.41 7.41 0 0 0 4.64 13.23 7.4 7.4 0 0 0 5.22-2.14s27.72-22.05 29.57-23.6a10.93 10.93 0 0 0 2.77-3.84s4.54-13.95 5.78-16.88c.85-2 4.94-1.08 4.94-1.08l22.88 8.63 7.62 29.07a7.43 7.43 0 1 0 14.59-2.7c-.85-4.98-4.61-27.06-5.57-31.84-1.08-5.4-4.62-6.93-4.62-6.93S83.19 95.18 81.81 94.4c-1.39-.77-1.08-2.77-1.08-2.77l3.93-14.33 2.77 5.85s1.62 3.28 4.09 3.4l33.35.81a7.43 7.43 0 0 0 .63-14.83Z"/><path fill="#F0C42E" d="m53.97 109.64.22.03c1.41 0 2.67-1 2.95-2.44L64.55 69a3.01 3.01 0 0 0-2.37-3.52l-20.22-3.91-1.28 5.86 17.41 3.37-6.27 32.36-45.3-8.78 6.27-32.35 12.54 2.43.83-5.95-15.18-2.95a2.99 2.99 0 0 0-3.51 2.38L.05 96.17a3 3 0 0 0 2.38 3.52l51.2 9.92c.11.02.22.03.34.03Z"/><path fill="#F0C52E" d="M59.04 9.48a2 2 0 0 1-2 2H19.01a2 2 0 0 1-2-2 2 2 0 0 1 2-1.99h38.03a2 2 0 0 1 2 2ZM57 19.48a2 2 0 0 1-2 1.99H32.04a2 2 0 0 1-2-1.99 2 2 0 0 1 2-1.99H55a2 2 0 0 1 2 1.99Z"/></g><defs><clipPath id="a"><path fill="#fff" d="M0 .5h136v164H0z"/></clipPath></defs></svg>